<svg width="500" height="58" fill="none" xmlns="http://www.w3.org/2000/svg"><path fill-rule="evenodd" clip-rule="evenodd" d="M14.1 8.536a18.37 18.37 0 011.701-2.19c1.147-1.256 2.347-2.146 3.486-2.523 1.046-.346 2.107-.29 3.272.496 1.014.684 2.176 1.974 3.376 4.217H14.1zm-4.22 0c.818-1.523 1.926-3.187 3.248-4.634C14.49 2.412 16.19 1.033 18.15.385c2.053-.679 4.291-.515 6.435.932 1.996 1.347 3.787 3.72 5.387 7.219h5.415l4.447 32.591H0L4.35 8.536h5.53z" fill="#3D72A3"/><path fill-rule="evenodd" clip-rule="evenodd" d="M32.476 19.4c.373-.722.794-1.43 1.246-2.066.843-1.182 1.658-1.918 2.327-2.201.3-.128.536-.15.738-.117.204.033.504.143.899.485.684.592 1.523 1.772 2.407 3.899h-7.617zm-4 0c.584-1.37 1.365-2.858 2.297-4.167.983-1.38 2.276-2.761 3.861-3.434.826-.35 1.754-.517 2.734-.357.979.159 1.88.62 2.688 1.321 1.495 1.295 2.782 3.494 3.92 6.636h3.89l3.35 28.97H21.21l3.278-28.97h3.987zm-3.211 25.349l2.457-21.728H44.64l2.512 21.728H25.264z" fill="#112133"/><path d="M354.803 31.544c.117-.119.235-.357.353-.595a6.878 6.878 0 00.589-1.666c.118-.595.236-1.31.354-1.904.236-1.31.589-2.5.825-3.81l1.414-6.783c.236-1.19.118-2.5 0-3.69-.118-.952.118-1.31 1.06-1.31 2.593 0 5.303-.118 7.896.12.471 0 1.296.833 1.532 1.309 1.06 4.76 2.003 9.64 3.064 14.52.117.715.353 1.43.471 2.143.118.476.236.833.236 1.31 0 .238.117.476.471.476.236 0 .236-.239.236-.477.118-.238.118-.595.235-.833.118-.595.236-1.19.354-1.666.236-1.19.589-2.38.825-3.57.825-3.81 1.65-7.618 2.357-11.308.235-1.428.942-2.023 2.474-1.904 1.297.119 2.711 0 4.243 0-.825 4.046-1.532 7.617-2.357 11.069-1.532 7.38-3.182 14.64-4.714 22.138-.353 1.667-.943 2.619-2.828 2.38-2.239-.237-4.36-.118-6.481 0-1.179.12-1.886-.237-2.004-1.547-.825-4.046-1.649-8.093-2.592-12.14l-.354-1.428c-.118-.238-.118-.476-.235-.714 0-.12-.118-.477-.354-.477-.353 0-.236.357-.353.596 0 .238-.118.357-.118.595-.118.357-.118.714-.236 1.19-.118.714-.353 1.547-.471 2.261l-.707 3.214c-.472 2.38-.943 4.88-1.532 7.26-.118.477-.825 1.19-1.297 1.19-2.828.12-5.656.12-8.484 0-.471 0-1.179-.594-1.296-1.07-1.532-6.666-2.946-13.331-4.36-19.997-.825-4.046-1.65-7.974-2.593-12.02-.471-2.262-.471-2.5 1.885-2.5h6.482c1.178 0 1.767.238 2.003 1.666.471 2.38.943 4.642 1.414 7.022l1.414 7.142c.236 1.309.589 2.5.825 3.808v.12c.236-.12.354-.12.354-.12zm-230.144-2.023c0 5.237-.118 10.474 0 15.711 0 1.667-.589 2.262-2.239 2.262a52.639 52.639 0 00-6.128 0c-1.178.119-1.532-.476-1.532-1.667.118-3.808-.118-7.617.118-11.426 0-1.428-.353-2.023-1.885-2.023a19.95 19.95 0 01-3.771 0c-1.532-.12-1.886.595-1.768 2.023.118 3.69 0 7.38.118 11.07 0 1.428-.354 2.023-1.885 2.023a58.875 58.875 0 00-6.482 0c-1.06 0-1.532-.238-1.532-1.548V13.334c0-1.19.472-1.547 1.532-1.547 2.239.119 4.478.119 6.599 0 1.179 0 1.65.476 1.532 1.785-.118 3.809 0 7.617-.118 11.426 0 1.548.354 2.024 1.886 1.905a19.95 19.95 0 013.771 0c1.532.119 1.885-.595 1.767-2.024-.117-3.69.118-7.38-.117-11.069 0-1.428.471-2.023 2.003-2.023 2.121.119 4.242.119 6.245 0 1.297-.12 1.768.476 1.768 1.785.118 5.356.118 10.712.118 15.95zm182.387.119c0-5.237.117-10.474 0-15.83 0-1.547.471-2.023 2.003-2.023 4.714.119 9.545-.238 14.259.238 6.127.595 11.43 3.927 13.669 9.879.825 2.261.59 4.642.707 6.903.118 3.809.118 7.737-1.885 11.07a15.567 15.567 0 01-7.424 6.07c-.707.237-1.296.475-2.003.714-2.004.476-4.125.595-6.246.714-3.417.119-6.953 0-10.37 0-2.593 0-2.592 0-2.592-2.619-.118-5.118-.118-10.117-.118-15.116zm10.134-.119c0 2.976-.118 5.951-.118 8.927 0 .833-.118 3.333 1.061 3.69 4.124 1.309 8.249-1.19 8.602-5.356.471-4.285.589-8.69.118-13.093-.471-5.356-2.71-6.903-8.131-6.784-1.414 0-1.886.476-1.886 1.904.354 3.452.354 7.022.354 10.712zm-156.257.357c0 3.095 0 6.19-1.414 9.046-2.829 5.713-9.428 9.284-15.555 8.45-5.421-.714-9.899-3.213-12.374-8.57-1.06-2.142-1.178-4.522-1.178-6.903-.118-4.403-.354-8.926 1.885-12.854 1.768-2.857 4.478-5.118 7.66-6.19 5.421-1.904 10.606-1.309 15.319 2.262 3.771 2.857 5.657 6.904 5.657 11.784v2.975zm-9.545 0a44.2 44.2 0 00-.708-7.855c-.471-2.857-2.474-4.761-4.831-4.88-2.357-.12-4.242 1.19-5.185 4.165-1.532 5.356-1.178 10.95-.236 16.426.354 2.38 1.886 4.404 4.478 4.76 2.711.358 5.067-1.547 5.657-4.76.589-2.738.825-5.237.825-7.856zm76.596-6.428c-3.299 0-6.245.12-9.191-.118-.943 0-1.296-2.38-1.532-2.976-.589-1.428-1.65-2.618-3.064-3.213-3.3-1.19-6.599 1.07-7.306 4.999-.943 5.118-.825 10.117 0 15.235.471 3.094 3.182 5.237 6.128 4.88 2.71-.238 5.067-3.214 5.067-6.07 0-1.19-.707-1.19-1.532-1.072-1.414.12-1.768-.595-1.768-1.904.118-4.88-.471-4.047 3.889-4.047 2.592-.119 5.303-.119 7.895.12.59 0 1.414.594 1.414.951.118 3.69.354 7.38-2.003 10.593-3.535 4.88-8.484 7.023-14.377 6.785-4.006-.12-8.013-1.667-11.077-4.285-1.531-1.31-2.71-2.857-3.535-4.761-.825-2.023-.825-4.047-.825-6.308 0-3.214-.118-6.547.472-9.76.942-5 4.831-7.856 9.545-9.641 6.363-2.38 14.259-.595 18.737 4.404 1.649 1.666 2.71 3.69 3.063 6.189zM66.328 35.591c2.12-.119 4.124.12 4.595 2.5.825 3.332 5.185 4.999 8.25 3.451 2.945-1.547 3.181-4.88.235-6.427-2.357-1.19-4.832-1.904-7.306-2.856-1.886-.715-3.771-1.429-5.42-2.38-5.422-3.453-5.893-10.475-.944-14.64 5.775-4.88 14.73-4.88 20.505-.12 2.003 1.547 3.064 3.69 3.535 6.19.236 1.07-.118 1.785-1.178 1.904-1.532.119-3.536.238-5.068 0-1.178-.12-1.767-1.071-1.885-2.262-.59-3.332-3.182-4.76-6.481-4.046-1.768.357-2.946 1.428-3.3 3.213-.236 1.786.472 3.214 2.004 3.928 2.003.952 4.124 1.547 6.245 2.142 2.828.834 5.656 1.905 7.778 4.166 3.181 3.333 3.535 7.737.707 11.427-3.418 4.403-8.25 5.95-13.67 5.475-5.539-.596-10.017-2.976-12.255-8.451-.236-.476-.236-.952-.472-1.428-.236-1.19.354-1.429 1.414-1.548.825 0 1.768-.119 2.71-.238zm100.487-5.831c0-5.238.118-10.475-.118-15.712-.118-1.904.589-2.38 2.239-2.261 4.36.119 8.72.119 13.08.119 6.599 0 9.781 5.594 9.31 10.95-.354 4.76-5.185 9.522-9.781 9.76a19.95 19.95 0 01-3.771 0c-1.178-.12-1.532.476-1.532 1.666.118 3.809 0 7.737.118 11.545 0 1.31-.354 1.786-1.65 1.667a54.656 54.656 0 00-6.245 0c-1.297.119-1.65-.476-1.65-1.786V29.76zm9.545-7.261c0 .952-.118 2.023.118 2.975.118.477.353 1.072.707 1.31 1.06.595 3.889-.476 4.949-1.667 1.061-1.309 1.414-2.737.707-4.285-.825-1.666-2.357-2.5-4.124-2.618-1.886-.238-2.239.119-2.239 2.023-.118.595-.118 1.429-.118 2.262zm237.01 4.047v11.783c0 2.856 0 2.856 2.592 2.856 2.593 0 5.067.12 7.66 0 1.06 0 1.414.358 1.414 1.548.236 4.76.235 4.76-4.242 4.76-5.068 0-10.135-.118-15.202 0-1.414 0-1.768-.475-1.768-1.904.118-10.593.118-21.305 0-31.898 0-1.31.354-1.904 1.65-1.904 2.121.119 4.125.119 6.246 0 1.296-.12 1.65.476 1.532 1.785.118 4.404.118 8.689.118 12.974zm17.676 3.214c0-5.238.117-10.475-.118-15.712 0-1.785.471-2.261 2.003-2.261 1.768.119 3.535.119 5.421 0 1.178-.12 1.65.476 1.65 1.904-.118 8.332 0 16.782 0 25.114 0 2.38 0 2.38 2.121 2.38 2.357 0 4.831.12 7.188 0 1.178-.119 1.65.238 1.65 1.786 0 4.523.118 4.523-3.889 4.523h-14.023c-2.003 0-2.003 0-2.121-2.262.118-5.237.118-10.355.118-15.473zm-42.423-.12c0-5.237.118-10.593 0-15.83 0-1.547.471-2.143 1.886-2.024a52.61 52.61 0 006.127 0c.943 0 1.414.357 1.414 1.429v32.85c0 .953-.353 1.429-1.178 1.31a61.024 61.024 0 00-6.599 0c-1.414.119-1.532-.834-1.532-1.905-.118-5.237-.118-10.474-.118-15.83zm-123.411.357c0 3.095 0 6.19-1.414 9.046-2.828 5.713-9.427 9.284-15.555 8.45-5.421-.713-9.899-3.213-12.373-8.569-1.061-2.142-1.179-4.523-1.179-6.903-.117-4.404-.353-8.927 1.886-12.855 1.767-2.857 4.478-5.118 7.659-6.19 5.421-1.904 10.606-1.309 15.32 2.262 3.771 2.857 5.656 6.904 5.656 11.784v2.975zm-9.545 0c0-2.618-.236-5.237-.707-7.855-.471-2.857-2.475-4.761-4.831-4.88-2.357-.12-4.243 1.19-5.185 4.165-1.532 5.357-1.179 10.95-.236 16.426.353 2.38 1.885 4.404 4.478 4.76 2.71.358 5.067-1.547 5.656-4.76.589-2.738.825-5.356.825-7.856zm45.84 0c0 3.095 0 6.19-1.414 9.046-2.828 5.713-9.427 9.284-15.555 8.45-5.421-.713-9.899-3.213-12.373-8.569-1.061-2.142-1.179-4.523-1.179-6.903-.118-4.404-.353-8.927 1.886-12.855 1.767-2.857 4.478-5.118 7.659-6.19 5.421-1.904 10.606-1.309 15.32 2.262 3.771 2.857 5.656 6.904 5.656 11.784v2.975zm-9.545 0c0-2.618-.236-5.237-.707-7.855-.471-2.857-2.475-4.761-4.832-4.88-2.356-.12-4.242 1.19-5.185 4.165-1.531 5.357-1.178 10.95-.235 16.426.353 2.38 1.885 4.404 4.478 4.76 2.71.358 5.067-1.547 5.656-4.76.471-2.738.825-5.237.825-7.856z" fill="#112133"/><path d="M487.693 44.952c2.041-3.192 3.82-6.175 5.704-9.105 1.151-1.78 2.041-1.989 3.872-1.465.942.314 1.413.89 1.256 1.831a57.666 57.666 0 01-.785 4.343c-1.047 4.971-2.093 9.89-3.087 14.808-.105.419-.053.995.104 1.413.524.994 0 1.151-.837 1.151-1.308 0-2.145-.68-1.988-2.04.261-2.564.628-5.128 1.151-7.64.628-3.087 1.465-6.07 2.198-9.157.052-.314 0-.628-.262-1.099-.419.576-.89 1.099-1.204 1.727-1.569 2.878-3.139 5.808-4.709 8.738-.418.733-.732 1.57-1.831 1.36-1.047-.209-1.832-.575-2.041-1.83-.262-1.727-.733-3.402-1.308-5.076-1.518 4.29-2.773 8.633-3.087 13.186-1.884.523-2.983-.262-2.564-2.198.785-3.924 1.726-7.796 2.668-11.72.524-2.199 1.099-4.396 1.779-6.541.105-.42.733-1.047 1.047-.995.523.105 1.203.471 1.517.942 1.57 2.355 1.361 5.128 1.936 7.744.21.524.314.995.471 1.623zm-29.773-8.477c-.837 1.256-1.727 2.46-2.512 3.715-2.04 3.454-3.924 7.012-4.761 10.936-.314 1.308-.681 2.93.471 3.61.68.367 2.354-.366 3.191-1.046 1.675-1.413 3.14-3.087 4.605-4.762.837-.941 1.518-1.15 2.564-.47.994.68.419 1.36 0 1.988-1.988 2.773-4.291 5.18-7.692 6.122-3.61.994-6.75-1.674-6.07-5.337 1.099-6.227 4.029-11.512 8.111-16.274 1.151-1.308 2.459-1.57 3.767-.941 1.204.523 1.989 1.988 1.727 3.61-.314 1.727-.785 3.401-1.203 5.076-.053.209-.105.47-.262.575-.523.419-1.099.733-1.622 1.099-.209-.576-.628-1.203-.576-1.727.21-1.57.628-3.087.89-4.604.104-.471 0-.995 0-1.465-.262 0-.419-.053-.628-.105zm5.704 14.442c.732-4.552 2.406-9.419 5.86-13.5 1.256-1.517 2.669-1.727 4.186-.785.837.523 1.413 1.099 1.308 2.302-.104.89.419 1.832.576 2.774.837 4.97-.628 9.314-3.872 13.081-1.57 1.831-3.506 2.355-5.495 1.518-1.726-.68-2.616-2.355-2.563-5.39zm9.68-6.855c-.21-1.308-.419-2.616-.68-3.924-.105-.419-.419-.785-.628-1.204-.367.314-.942.524-1.152.942a171.541 171.541 0 00-3.715 8.425c-.732 1.831-1.098 3.767-.628 5.756.262 1.046.838 1.15 1.623.575.418-.314.837-.628 1.151-1.046 2.354-2.721 3.767-5.808 4.029-9.524zm-28.622 12.506c-1.675-.053-2.512-.68-2.407-1.623.104-.837.523-1.779 1.36-1.465.785.262 1.465 1.152 1.988 1.884.105.105-.732.89-.941 1.204z" fill="#3D72A3"/></svg>